<?xml version="1.0" encoding="utf-8"?>
<!-- Generator: Adobe Illustrator 16.0.0, SVG Export Plug-In . SVG Version: 6.00 Build 0)  -->
<!DOCTYPE svg PUBLIC "-//W3C//DTD SVG 1.1//EN" "http://www.w3.org/Graphics/SVG/1.1/DTD/svg11.dtd">
<svg version="1.1" id="Capa_1" xmlns="http://www.w3.org/2000/svg" xmlns:xlink="http://www.w3.org/1999/xlink" x="0px" y="0px"
	 width="23.979px" height="23.977px" viewBox="0 0 23.979 23.977" enable-background="new 0 0 23.979 23.977" xml:space="preserve">
<g>
	<g>
		<path fill="#020202" d="M23.391,8.314c1.605,4.94-0.153,10.35-4.355,13.403c-4.201,3.053-9.891,3.053-14.092,0
			s-5.96-8.463-4.355-13.403C2.193,3.375,6.796,0.031,11.99,0.031S21.785,3.375,23.391,8.314z M11.99,1.111
			c-4.726,0-8.914,3.043-10.374,7.537c-1.46,4.495,0.139,9.418,3.962,12.196s9,2.777,12.823,0c3.824-2.777,5.424-7.701,3.963-12.196
			C20.904,4.154,16.715,1.111,11.99,1.111z"/>
	</g>
	<path fill-rule="evenodd" clip-rule="evenodd" fill="#020202" d="M13.619,8.573c0.324-0.012,0.649-0.003,0.976-0.003
		c0.04,0,0.08,0,0.134,0V6.878c-0.174-0.017-0.355-0.042-0.537-0.051c-0.333-0.015-0.667-0.031-1.001-0.023
		c-0.51,0.011-0.992,0.135-1.414,0.437c-0.483,0.348-0.748,0.836-0.849,1.412c-0.042,0.237-0.053,0.484-0.059,0.726
		c-0.009,0.38-0.001,0.759-0.001,1.139v0.143H9.249v1.89h1.609v4.748h1.966v-4.74h1.604c0.082-0.629,0.163-1.251,0.247-1.899
		c-0.129,0-0.245-0.001-0.36,0c-0.456,0.002-1.503,0-1.503,0s0.005-0.937,0.016-1.343C12.843,8.759,13.173,8.589,13.619,8.573z"/>
</g>
</svg>
