<?xml version="1.0" encoding="utf-8"?>
<!-- Generator: Adobe Illustrator 16.0.0, SVG Export Plug-In . SVG Version: 6.00 Build 0)  -->
<!DOCTYPE svg PUBLIC "-//W3C//DTD SVG 1.1//EN" "http://www.w3.org/Graphics/SVG/1.1/DTD/svg11.dtd">
<svg version="1.1" id="Capa_1" xmlns="http://www.w3.org/2000/svg" xmlns:xlink="http://www.w3.org/1999/xlink" x="0px" y="0px"
	 width="23.979px" height="23.976px" viewBox="0 0 23.979 23.976" enable-background="new 0 0 23.979 23.976" xml:space="preserve">
<g>
	<g>
		<path fill="#486FAF" d="M23.391,8.283c1.604,4.939-0.153,10.351-4.354,13.403c-4.202,3.053-9.892,3.053-14.093,0
			s-5.96-8.464-4.355-13.403S6.796,0,11.989,0S21.786,3.344,23.391,8.283z M11.989,1.08c-4.726,0-8.914,3.043-10.374,7.537
			c-1.46,4.494,0.139,9.418,3.962,12.195c3.823,2.778,9,2.778,12.824,0c3.822-2.777,5.422-7.701,3.962-12.195
			S16.715,1.08,11.989,1.08z"/>
	</g>
	<path fill-rule="evenodd" clip-rule="evenodd" fill="#486FAF" d="M13.618,8.542c0.326-0.012,0.65-0.003,0.977-0.003
		c0.04,0,0.08,0,0.135,0V6.847c-0.174-0.017-0.355-0.042-0.537-0.051c-0.334-0.015-0.668-0.031-1.002-0.023
		c-0.51,0.011-0.992,0.135-1.414,0.437c-0.483,0.348-0.748,0.836-0.849,1.412c-0.042,0.237-0.053,0.484-0.059,0.726
		c-0.009,0.38-0.001,0.759-0.001,1.139v0.143H9.249v1.89h1.609v4.749h1.966v-4.741h1.604c0.082-0.629,0.162-1.251,0.246-1.898
		c-0.129,0-0.244-0.001-0.36,0c-0.456,0.002-1.503,0-1.503,0s0.004-0.937,0.016-1.343C12.843,8.728,13.173,8.558,13.618,8.542z"/>
</g>
</svg>
