<?xml version="1.0" encoding="utf-8"?>
<!-- Generator: Adobe Illustrator 16.0.0, SVG Export Plug-In . SVG Version: 6.00 Build 0)  -->
<!DOCTYPE svg PUBLIC "-//W3C//DTD SVG 1.1//EN" "http://www.w3.org/Graphics/SVG/1.1/DTD/svg11.dtd">
<svg version="1.1" id="Capa_1" xmlns="http://www.w3.org/2000/svg" xmlns:xlink="http://www.w3.org/1999/xlink" x="0px" y="0px"
	 width="23.979px" height="23.977px" viewBox="0 0 23.979 23.977" enable-background="new 0 0 23.979 23.977" xml:space="preserve">
<g>
	<g>
		<path fill="#DB5447" d="M23.391,8.283c1.605,4.939-0.152,10.351-4.354,13.403s-9.891,3.053-14.093,0s-5.96-8.464-4.355-13.403
			S6.797,0,11.99,0C17.184,0,21.786,3.344,23.391,8.283z M11.99,1.08c-4.726,0-8.915,3.043-10.375,7.537
			c-1.46,4.494,0.139,9.418,3.962,12.195c3.823,2.778,9,2.778,12.823,0c3.823-2.777,5.423-7.701,3.962-12.195
			C20.905,4.123,16.715,1.08,11.99,1.08z"/>
	</g>
	<g>
		<path fill="#DB5447" d="M10.324,11.268c-0.001,0.024-0.004,0.046-0.004,0.065c0,0.505,0.001,1.597,0.001,1.597s2.101,0,2.214,0
			c0,0.164-0.194,0.824-0.813,1.244c-0.363,0.245-0.771,0.358-1.202,0.386c-0.305,0.02-0.604-0.011-0.897-0.104
			c-0.923-0.296-1.611-1.132-1.705-2.149c-0.023-0.251-0.006-0.502,0.05-0.75c0.274-1.203,1.415-2.096,2.72-1.903
			c0.579,0.086,0.911,0.326,1.216,0.586c0.398-0.4,0.795-0.796,1.202-1.204c-0.099-0.071-0.327-0.304-0.733-0.538
			c-0.606-0.351-1.261-0.526-1.961-0.534c-0.132-0.001-0.264,0.007-0.396,0.013C9.785,7.984,9.558,8.024,9.335,8.08
			C8.441,8.309,7.698,8.779,7.116,9.495c-0.56,0.688-0.859,1.48-0.915,2.363c-0.024,0.374,0.005,0.747,0.087,1.113
			c0.232,1.024,0.77,1.852,1.618,2.472c0.657,0.481,1.396,0.737,2.208,0.782c0.456,0.024,0.91-0.018,1.355-0.134
			c0.829-0.217,1.516-0.649,2.034-1.338c0.75-0.996,0.93-2.273,0.709-3.486C12.914,11.268,11.621,11.268,10.324,11.268z"/>
		<polygon fill="#DB5447" points="19.215,11.322 17.815,11.322 17.815,9.92 17.815,9.879 17.773,9.879 16.727,9.879 16.685,9.879 
			16.685,9.92 16.685,11.322 15.283,11.322 15.242,11.322 15.242,11.363 15.242,12.408 15.242,12.45 15.283,12.45 16.685,12.45 
			16.685,13.853 16.685,13.894 16.727,13.894 17.773,13.894 17.815,13.894 17.815,13.853 17.815,12.45 19.215,12.45 19.256,12.45 
			19.256,12.408 19.256,11.363 19.256,11.322 		"/>
	</g>
</g>
</svg>
